<?xml version="1.0" encoding="UTF-8"?>
<svg xmlns="http://www.w3.org/2000/svg" xmlns:xlink="http://www.w3.org/1999/xlink" width="16pt" height="16pt" viewBox="0 0 16 16" version="1.1">
<g id="surface1">
<path style=" stroke:none;fill-rule:nonzero;fill:rgb(0%,0%,0%);fill-opacity:1;" d="M 6.480469 0.550781 C 5.886719 0.679688 4.808594 1.0625 4.488281 1.273438 C 4.40625 1.328125 4.542969 1.625 5.121094 2.609375 C 5.519531 3.3125 5.878906 3.902344 5.902344 3.9375 C 5.9375 3.96875 6.191406 3.910156 6.480469 3.808594 C 6.769531 3.703125 7.191406 3.59375 7.425781 3.558594 L 7.839844 3.503906 L 7.839844 0.398438 L 7.503906 0.40625 C 7.3125 0.40625 6.855469 0.472656 6.480469 0.550781 Z M 6.480469 0.550781 "/>
<path style=" stroke:none;fill-rule:nonzero;fill:rgb(0%,0%,0%);fill-opacity:1;" d="M 8.160156 1.929688 L 8.160156 3.480469 L 8.769531 3.585938 C 9.097656 3.632812 9.535156 3.753906 9.734375 3.839844 C 9.9375 3.929688 10.113281 3.992188 10.128906 3.984375 C 10.136719 3.96875 10.480469 3.382812 10.878906 2.679688 C 11.289062 1.976562 11.632812 1.375 11.65625 1.335938 C 11.769531 1.152344 9.742188 0.511719 8.800781 0.433594 L 8.160156 0.375 Z M 8.160156 1.929688 "/>
<path style=" stroke:none;fill-rule:nonzero;fill:rgb(0%,0%,0%);fill-opacity:1;" d="M 3.550781 1.871094 C 2.726562 2.488281 1.480469 3.902344 1.625 4.046875 C 1.648438 4.078125 2.257812 4.433594 2.96875 4.847656 L 4.265625 5.59375 L 4.527344 5.246094 C 4.671875 5.054688 4.976562 4.742188 5.207031 4.542969 L 5.625 4.183594 L 4.878906 2.910156 C 4.480469 2.214844 4.121094 1.609375 4.089844 1.574219 C 4.054688 1.542969 3.816406 1.671875 3.550781 1.871094 Z M 3.550781 1.871094 "/>
<path style=" stroke:none;fill-rule:nonzero;fill:rgb(0%,0%,0%);fill-opacity:1;" d="M 11.238281 2.777344 C 10.847656 3.464844 10.511719 4.0625 10.496094 4.113281 C 10.488281 4.167969 10.640625 4.328125 10.839844 4.480469 C 11.039062 4.632812 11.351562 4.945312 11.527344 5.175781 L 11.855469 5.59375 L 12.230469 5.375 C 14.761719 3.921875 14.550781 4.0625 14.441406 3.839844 C 14.207031 3.40625 13.398438 2.527344 12.777344 2.039062 C 12.414062 1.753906 12.089844 1.519531 12.039062 1.519531 C 12 1.519531 11.640625 2.089844 11.238281 2.777344 Z M 11.238281 2.777344 "/>
<path style=" stroke:none;fill-rule:nonzero;fill:rgb(0%,0%,0%);fill-opacity:1;" d="M 1.167969 4.792969 C 0.878906 5.359375 0.558594 6.496094 0.503906 7.175781 L 0.457031 7.761719 L 3.566406 7.761719 L 3.664062 7.214844 C 3.710938 6.910156 3.824219 6.496094 3.910156 6.296875 C 4.03125 6.023438 4.046875 5.910156 3.976562 5.855469 C 3.832031 5.742188 1.65625 4.496094 1.503906 4.441406 C 1.398438 4.398438 1.320312 4.480469 1.167969 4.792969 Z M 1.167969 4.792969 "/>
<path style=" stroke:none;fill-rule:nonzero;fill:rgb(0%,0%,0%);fill-opacity:1;" d="M 13.359375 5.136719 C 12.679688 5.535156 12.105469 5.871094 12.097656 5.886719 C 12.078125 5.894531 12.136719 6.105469 12.230469 6.351562 C 12.320312 6.59375 12.433594 7.023438 12.488281 7.3125 L 12.574219 7.839844 L 15.703125 7.839844 L 15.648438 7.335938 C 15.519531 6.207031 14.929688 4.390625 14.6875 4.40625 C 14.640625 4.40625 14.039062 4.734375 13.359375 5.136719 Z M 13.359375 5.136719 "/>
<path style=" stroke:none;fill-rule:nonzero;fill:rgb(0%,0%,0%);fill-opacity:1;" d="M 9.273438 6.289062 C 8.777344 6.777344 8.625 6.886719 8.535156 6.808594 C 8.382812 6.6875 8.152344 6.945312 8.207031 7.160156 C 8.238281 7.28125 7.945312 7.617188 6.960938 8.601562 C 6.257812 9.304688 5.679688 9.9375 5.679688 10 C 5.679688 10.070312 5.640625 10.167969 5.585938 10.222656 C 5.511719 10.296875 5.527344 10.351562 5.632812 10.472656 C 5.769531 10.625 5.792969 10.625 6.0625 10.496094 C 6.230469 10.425781 6.9375 9.800781 7.648438 9.097656 C 8.480469 8.28125 8.960938 7.855469 9 7.921875 C 9.097656 8.070312 9.367188 7.769531 9.3125 7.566406 C 9.28125 7.441406 9.398438 7.273438 9.839844 6.839844 C 10.441406 6.238281 10.527344 6.015625 10.222656 5.808594 C 10.128906 5.734375 10.015625 5.679688 9.976562 5.679688 C 9.9375 5.679688 9.617188 5.953125 9.273438 6.289062 Z M 8.640625 7.558594 L 8.832031 7.769531 L 7.574219 9.023438 C 6.695312 9.910156 6.238281 10.304688 6.039062 10.367188 C 5.351562 10.585938 5.648438 10.105469 7.113281 8.617188 C 7.800781 7.929688 8.375 7.359375 8.40625 7.359375 C 8.433594 7.359375 8.535156 7.449219 8.640625 7.558594 Z M 8.640625 7.558594 "/>
<path style=" stroke:none;fill-rule:nonzero;fill:rgb(0%,0%,0%);fill-opacity:1;" d="M 0.480469 8.519531 C 0.480469 9.222656 0.945312 10.910156 1.273438 11.433594 C 1.335938 11.527344 1.601562 11.40625 2.65625 10.800781 C 3.375 10.390625 3.976562 10.039062 3.992188 10.03125 C 4 10.015625 3.9375 9.777344 3.847656 9.496094 C 3.753906 9.214844 3.65625 8.800781 3.625 8.574219 L 3.574219 8.160156 L 0.480469 8.160156 Z M 0.480469 8.519531 "/>
<path style=" stroke:none;fill-rule:nonzero;fill:rgb(0%,0%,0%);fill-opacity:1;" d="M 12.519531 8.535156 C 12.496094 8.703125 12.390625 9.089844 12.289062 9.398438 C 12.191406 9.703125 12.097656 10.007812 12.070312 10.070312 C 12.046875 10.144531 12.472656 10.433594 13.320312 10.929688 C 14.023438 11.34375 14.632812 11.679688 14.664062 11.679688 C 14.703125 11.679688 14.855469 11.40625 15.007812 11.089844 C 15.289062 10.464844 15.550781 9.496094 15.648438 8.695312 L 15.695312 8.238281 L 12.566406 8.238281 Z M 12.519531 8.535156 "/>
<path style=" stroke:none;fill-rule:nonzero;fill:rgb(0%,0%,0%);fill-opacity:1;" d="M 2.886719 11.078125 C 2.167969 11.496094 1.558594 11.847656 1.542969 11.863281 C 1.488281 11.921875 2.0625 12.695312 2.519531 13.191406 C 3.023438 13.734375 3.894531 14.425781 3.992188 14.359375 C 4.023438 14.34375 4.382812 13.742188 4.792969 13.039062 L 5.535156 11.753906 L 5.023438 11.257812 C 4.734375 10.984375 4.441406 10.664062 4.351562 10.542969 L 4.199219 10.320312 Z M 2.886719 11.078125 "/>
<path style=" stroke:none;fill-rule:nonzero;fill:rgb(0%,0%,0%);fill-opacity:1;" d="M 11.328125 11.007812 C 11.070312 11.289062 10.753906 11.585938 10.632812 11.65625 C 10.503906 11.734375 10.398438 11.824219 10.398438 11.863281 C 10.398438 11.929688 11.464844 13.824219 11.816406 14.382812 L 11.929688 14.558594 L 12.425781 14.222656 C 13.289062 13.632812 14.617188 12.167969 14.433594 12 C 14.359375 11.9375 11.832031 10.472656 11.816406 10.488281 C 11.808594 10.488281 11.59375 10.71875 11.328125 11.007812 Z M 11.328125 11.007812 "/>
<path style=" stroke:none;fill-rule:nonzero;fill:rgb(0%,0%,0%);fill-opacity:1;" d="M 5.089844 13.246094 C 4.664062 13.976562 4.335938 14.609375 4.359375 14.640625 C 4.433594 14.753906 5.585938 15.199219 6.183594 15.351562 C 6.503906 15.433594 6.984375 15.527344 7.265625 15.558594 L 7.761719 15.617188 L 7.761719 14.046875 C 7.761719 13.183594 7.734375 12.480469 7.703125 12.480469 C 7.449219 12.472656 6.511719 12.222656 6.246094 12.089844 C 6.070312 11.992188 5.910156 11.921875 5.886719 11.921875 C 5.871094 11.921875 5.511719 12.519531 5.089844 13.246094 Z M 5.089844 13.246094 "/>
<path style=" stroke:none;fill-rule:nonzero;fill:rgb(0%,0%,0%);fill-opacity:1;" d="M 9.457031 12.238281 C 9.222656 12.328125 8.816406 12.414062 8.558594 12.449219 L 8.078125 12.503906 L 8.078125 15.625 L 8.710938 15.566406 C 9.511719 15.503906 10.457031 15.265625 11.097656 14.960938 L 11.601562 14.726562 L 10.839844 13.425781 C 10.433594 12.703125 10.039062 12.113281 9.984375 12.105469 C 9.929688 12.097656 9.6875 12.160156 9.457031 12.238281 Z M 9.457031 12.238281 "/>
</g>
</svg>
