<?xml version="1.0" standalone="no"?>
<!DOCTYPE svg PUBLIC "-//W3C//DTD SVG 20010904//EN"
 "http://www.w3.org/TR/2001/REC-SVG-20010904/DTD/svg10.dtd">
<svg version="1.0" xmlns="http://www.w3.org/2000/svg"
 width="200.000000pt" height="200.000000pt" viewBox="0 0 200.000000 200.000000"
 preserveAspectRatio="xMidYMid meet">

<g transform="translate(0.000000,200.000000) scale(0.100000,-0.100000)"
fill="#000000" stroke="none">
<path d="M295 1559 c-68 -88 -138 -227 -167 -334 -17 -65 -22 -108 -22 -225 0
-172 19 -254 89 -397 40 -81 147 -233 164 -233 4 0 29 22 56 50 l49 50 -22 27
c-58 73 -108 154 -133 213 -104 248 -64 545 101 751 28 34 50 67 50 73 0 15
-82 96 -97 96 -6 0 -37 -32 -68 -71z"/>
<path d="M1577 1582 l-47 -48 39 -46 c89 -108 138 -209 165 -340 45 -220 -15
-462 -156 -623 -21 -24 -38 -49 -38 -57 0 -16 80 -98 96 -98 24 0 130 149 179
253 61 127 78 212 78 377 0 165 -17 250 -78 377 -50 106 -155 253 -180 253 -6
0 -32 -21 -58 -48z"/>
<path d="M1421 1426 l-35 -36 26 -27 c42 -45 86 -121 110 -192 18 -52 23 -88
23 -171 0 -83 -5 -119 -23 -171 -24 -71 -68 -147 -110 -192 l-26 -27 29 -30
c16 -17 34 -30 41 -30 22 0 84 82 125 165 91 186 91 385 -1 572 -22 44 -59
102 -83 128 l-42 47 -34 -36z"/>
<path d="M495 1408 c-83 -98 -145 -270 -145 -408 0 -141 64 -315 149 -411 l39
-44 36 34 36 35 -24 25 c-40 43 -84 120 -108 190 -18 52 -23 88 -23 171 0 83
5 119 23 171 24 71 68 147 110 192 l26 27 -29 30 c-16 17 -34 30 -41 30 -7 0
-29 -19 -49 -42z"/>
<path d="M1101 1436 c-87 -48 -50 -186 49 -186 51 0 100 49 100 99 0 75 -83
124 -149 87z"/>
<path d="M765 1140 c-30 -60 -55 -112 -55 -115 0 -6 81 -48 85 -43 1 2 21 40
44 86 l41 82 45 0 45 0 -75 -150 -75 -150 -85 0 -85 0 0 -50 0 -50 115 0 115
0 32 65 c18 36 35 65 38 65 3 0 39 -67 80 -150 41 -82 76 -150 78 -150 7 0 82
41 82 45 0 3 -41 88 -92 190 l-92 184 25 52 25 52 33 -52 33 -51 114 0 114 0
0 50 0 50 -87 0 -88 0 -49 75 -48 75 -129 0 -129 0 -55 -110z"/>
</g>
</svg>
